<?xml version="1.0" encoding="utf-8"?>
<!-- Generated by IcoMoon.io -->
<!DOCTYPE svg PUBLIC "-//W3C//DTD SVG 1.1//EN" "http://www.w3.org/Graphics/SVG/1.1/DTD/svg11.dtd">
<svg version="1.1" xmlns="http://www.w3.org/2000/svg" xmlns:xlink="http://www.w3.org/1999/xlink" width="48" height="32" viewBox="0 0 48 32">
<path fill="#444" d="M7.372 13.086h9.772v-9.257h5.143v24h-5.143v-10.286h-9.772v10.286h-5.314v-24h5.314v9.257zM39.771 4.686c1.372 0.514 2.4 1.2 3.428 2.228s1.714 2.228 2.228 3.772 0.857 3.257 0.857 5.143c0 1.714-0.172 3.428-0.686 4.8-0.514 1.543-1.2 2.743-2.057 3.772s-2.057 1.886-3.428 2.572c-1.372 0.686-2.914 0.857-4.8 0.857h-9.428v-24h9.428c1.543 0.172 3.086 0.343 4.457 0.857v0 0zM31.2 8.286v15.086h3.772c0.686 0 1.543-0.172 2.229-0.343s1.372-0.686 1.886-1.2c0.514-0.514 1.028-1.372 1.372-2.228s0.514-2.057 0.514-3.428c0-1.2-0.172-2.229-0.343-3.257s-0.686-1.886-1.2-2.572-1.2-1.2-2.057-1.543-2.057-0.514-3.257-0.514h-2.914z"></path>
</svg>
