<?xml version="1.0" encoding="utf-8"?>
<!-- Generated by IcoMoon.io -->
<!DOCTYPE svg PUBLIC "-//W3C//DTD SVG 1.1//EN" "http://www.w3.org/Graphics/SVG/1.1/DTD/svg11.dtd">
<svg version="1.1" xmlns="http://www.w3.org/2000/svg" xmlns:xlink="http://www.w3.org/1999/xlink" width="32" height="32" viewBox="0 0 32 32">
<path fill="#444" d="M23.342 3.849c0 0 0.306 0.175 0.831 0.437 0.525 0.35 1.267 0.787 2.142 1.573 0.874 0.743 1.836 1.792 2.666 3.147s1.617 3.059 1.967 5.026c0.175 0.961 0.306 2.010 0.262 3.103 0 0.262 0 0.525-0.044 0.787 0 0.262-0.087 0.568-0.087 0.831-0.044 0.262-0.044 0.568-0.131 0.831-0.044 0.262-0.131 0.568-0.175 0.831-0.087 0.568-0.35 1.093-0.525 1.661-0.087 0.306-0.219 0.525-0.35 0.831-0.131 0.262-0.219 0.568-0.393 0.831-0.306 0.525-0.568 1.093-0.961 1.573-0.175 0.262-0.35 0.525-0.568 0.743s-0.393 0.481-0.612 0.699c-0.087 0.131-0.219 0.262-0.306 0.35l-0.35 0.35c-0.219 0.219-0.481 0.437-0.699 0.656-0.525 0.393-1.005 0.831-1.573 1.136-1.093 0.743-2.316 1.267-3.584 1.704-0.656 0.175-1.311 0.393-1.967 0.481-0.35 0.044-0.656 0.131-1.005 0.175l-1.005 0.087h-0.306c0.044 0-0.087 0-0.087 0h-0.656c-0.35 0-0.656 0-1.005-0.044-0.699-0.087-1.399-0.175-2.098-0.35-2.71-0.612-5.201-2.010-7.212-3.89-1.967-1.923-3.409-4.327-4.108-6.906-0.087-0.306-0.175-0.656-0.262-0.961-0.044-0.306-0.131-0.656-0.175-0.961l-0.087-0.481-0.044-0.481c-0.044-0.306-0.044-0.656-0.087-0.961v-0.175c0 0 0-0.131 0-0.087v-0.699c0-0.306 0-0.568 0.044-0.874s0.087-0.656 0.131-0.961l0.044-0.481c0.044-0.175 0.087-0.306 0.087-0.437 0.525-2.404 1.573-4.545 2.841-6.25 1.311-1.704 2.841-3.016 4.327-3.933s2.972-1.53 4.196-1.836c0.306-0.087 0.612-0.175 0.874-0.219s0.525-0.087 0.787-0.131c0.262-0.044 0.481-0.087 0.699-0.131 0.219 0 0.393-0.044 0.568-0.044 0.787 0 1.136-0.044 1.136-0.044 0.961-0.044 1.792 0.656 1.879 1.617 0.044 0.961-0.656 1.792-1.617 1.879 0 0-0.044 0-0.044 0h-0.219c0 0-0.306 0-0.831 0.044-0.131 0-0.306 0-0.437 0-0.175 0-0.35 0.044-0.525 0.087s-0.393 0.044-0.612 0.087c-0.219 0.044-0.437 0.087-0.699 0.131-1.005 0.175-2.142 0.612-3.409 1.311-1.224 0.699-2.535 1.661-3.628 3.060-1.136 1.355-2.054 3.059-2.579 5.026-0.044 0.131-0.087 0.262-0.087 0.35l-0.044 0.35c-0.044 0.262-0.087 0.481-0.131 0.743s-0.044 0.568-0.087 0.831l-0.044 0.437v0.262c0 0.087 0-0.044 0-0.044v0.131c0 0.262 0 0.525 0.044 0.831v0.393l0.044 0.393c0.044 0.262 0.087 0.568 0.087 0.831 0.044 0.262 0.131 0.525 0.175 0.831 0.481 2.185 1.661 4.283 3.278 6.031 1.661 1.704 3.802 3.059 6.162 3.671 0.612 0.175 1.18 0.262 1.748 0.393 0.306 0.044 0.656 0.044 0.961 0.087l0.481 0.044h0.175c0 0-0.044 0 0 0h0.262l0.918-0.044c0.306 0 0.612-0.087 0.918-0.087 0.612-0.044 1.18-0.219 1.792-0.35 1.18-0.35 2.316-0.787 3.322-1.442 0.525-0.262 1.005-0.656 1.486-1.005 0.219-0.175 0.437-0.393 0.656-0.568l0.35-0.306c0.087-0.087 0.219-0.219 0.306-0.306 0.219-0.219 0.393-0.437 0.612-0.656 0.175-0.219 0.35-0.437 0.525-0.699 0.393-0.437 0.656-0.961 0.961-1.442 0.175-0.219 0.262-0.481 0.393-0.743s0.262-0.481 0.35-0.743c0.175-0.525 0.437-1.005 0.568-1.573 0.087-0.262 0.131-0.525 0.219-0.787s0.087-0.525 0.131-0.787c0.044-0.262 0.087-0.525 0.131-0.787 0-0.262 0.044-0.525 0.044-0.787 0.087-1.005 0.044-2.010-0.131-2.972-0.262-1.923-0.961-3.584-1.704-4.939-0.787-1.355-1.704-2.404-2.491-3.191-0.831-0.787-1.573-1.311-2.054-1.661-0.437-0.262-0.743-0.437-0.743-0.437z"></path>
</svg>
