<?xml version="1.0" encoding="utf-8"?>
<!-- Generated by IcoMoon.io -->
<!DOCTYPE svg PUBLIC "-//W3C//DTD SVG 1.1//EN" "http://www.w3.org/Graphics/SVG/1.1/DTD/svg11.dtd">
<svg version="1.1" xmlns="http://www.w3.org/2000/svg" xmlns:xlink="http://www.w3.org/1999/xlink" width="48" height="32" viewBox="0 0 48 32">
<path fill="#444" d="M4.541 7.495c0.953-1.091 2.132-1.95 3.523-2.568 1.389-0.624 2.961-0.935 4.707-0.935 1.253 0 2.44 0.183 3.559 0.548 1.119 0.358 2.119 0.893 3.004 1.592 0.881 0.697 1.611 1.557 2.183 2.589 0.576 1.028 0.937 2.207 1.086 3.533h-4.84c-0.091-0.579-0.279-1.107-0.579-1.59-0.298-0.48-0.675-0.903-1.119-1.271-0.444-0.358-0.953-0.648-1.516-0.852-0.564-0.199-1.15-0.302-1.77-0.302-1.127 0-2.083 0.223-2.873 0.661-0.785 0.44-1.429 1.028-1.912 1.767-0.488 0.74-0.846 1.583-1.071 2.517-0.221 0.949-0.334 1.921-0.334 2.933 0 0.961 0.111 1.9 0.334 2.814 0.226 0.908 0.584 1.729 1.071 2.455 0.488 0.732 1.127 1.313 1.912 1.749 0.793 0.442 1.748 0.661 2.873 0.661 1.532 0 2.73-0.47 3.591-1.415 0.857-0.944 1.389-2.186 1.575-3.73h4.847c-0.13 1.441-0.459 2.735-0.991 3.891-0.533 1.162-1.23 2.147-2.102 2.961-0.874 0.816-1.897 1.437-3.069 1.864-1.17 0.43-2.46 0.641-3.861 0.641-1.746 0-3.314-0.302-4.707-0.918-1.388-0.601-2.567-1.445-3.531-2.519-0.953-1.071-1.686-2.33-2.193-3.78-0.517-1.446-0.771-3.004-0.771-4.676 0-1.719 0.262-3.305 0.775-4.775 0.507-1.461 1.241-2.745 2.198-3.836v-0.008h0.002zM28.181 7.495c0.953-1.091 2.137-1.95 3.533-2.568 1.388-0.624 2.956-0.935 4.702-0.935 1.253 0 2.44 0.183 3.559 0.548 1.11 0.358 2.114 0.893 2.997 1.592 0.884 0.697 1.614 1.557 2.181 2.589 0.579 1.028 0.941 2.207 1.091 3.533h-4.852c-0.080-0.579-0.279-1.107-0.571-1.59-0.302-0.48-0.675-0.903-1.119-1.271-0.437-0.358-0.954-0.648-1.509-0.852-0.567-0.199-1.157-0.302-1.773-0.302-1.127 0-2.087 0.223-2.873 0.661-0.793 0.44-1.427 1.028-1.916 1.767-0.492 0.74-0.846 1.583-1.071 2.517-0.221 0.949-0.334 1.921-0.334 2.933 0 0.961 0.111 1.9 0.334 2.814 0.226 0.908 0.579 1.729 1.071 2.455 0.488 0.732 1.127 1.313 1.912 1.749 0.783 0.442 1.746 0.661 2.87 0.661 1.532 0 2.726-0.47 3.591-1.415 0.86-0.944 1.388-2.186 1.58-3.73h4.849c-0.128 1.441-0.458 2.735-0.994 3.891-0.528 1.162-1.229 2.147-2.102 2.961-0.874 0.816-1.893 1.437-3.064 1.864-1.172 0.43-2.46 0.641-3.86 0.641-1.746 0-3.314-0.302-4.707-0.918-1.389-0.601-2.57-1.445-3.531-2.519-0.953-1.071-1.686-2.33-2.198-3.78-0.507-1.446-0.764-3.004-0.764-4.676 0-1.719 0.257-3.305 0.764-4.775 0.517-1.461 1.246-2.745 2.202-3.836l0.003-0.008z"></path>
</svg>
